<svg xmlns="http://www.w3.org/2000/svg" xmlns:xlink="http://www.w3.org/1999/xlink" contentStyleType="text/css" height="825px" preserveAspectRatio="none" style="width:342px;height:825px;background:#FFFFFF;" version="1.1" viewBox="0 0 342 825" width="342px" zoomAndPan="magnify"><title>LeetCode 179 - Largest Number</title><defs/><g><text fill="#000000" font-family="sans-serif" font-size="14" font-weight="bold" lengthAdjust="spacing" textLength="210.834" x="64.5684" y="34.5332">LeetCode 179 - Largest Number</text><ellipse cx="132.7651" cy="58.6094" fill="#222222" rx="10" ry="10" style="stroke:#222222;stroke-width:1;"/><rect fill="#F1F1F1" height="35.0938" rx="12.5" ry="12.5" style="stroke:#181818;stroke-width:0.5;" width="118.707" x="73.4116" y="88.6094"/><text fill="#000000" font-family="sans-serif" font-size="12" lengthAdjust="spacing" textLength="98.707" x="83.4116" y="111.0664">Receive int[] nums</text><rect fill="#F1F1F1" height="35.0938" rx="12.5" ry="12.5" style="stroke:#181818;stroke-width:0.5;" width="173.3984" x="46.0659" y="143.7031"/><text fill="#000000" font-family="sans-serif" font-size="12" lengthAdjust="spacing" textLength="153.3984" x="56.0659" y="166.1602">Convert nums to Integer[] arr</text><rect fill="#F1F1F1" height="35.0938" rx="12.5" ry="12.5" style="stroke:#181818;stroke-width:0.5;" width="190.7188" x="37.4058" y="198.7969"/><text fill="#000000" font-family="sans-serif" font-size="12" lengthAdjust="spacing" textLength="170.7188" x="47.4058" y="221.2539">Sort arr with custom comparator</text><rect fill="none" height="249.9844" style="stroke:#000000;stroke-width:1.5;" width="208.0938" x="28.7183" y="243.8906"/><path d="M112.6353,243.8906 L112.6353,254.5 L102.6353,264.5 L28.7183,264.5 " fill="none" style="stroke:#000000;stroke-width:1.5;"/><text fill="#000000" font-family="sans-serif" font-size="14" lengthAdjust="spacing" textLength="73.917" x="31.7183" y="259.4238">Comparator</text><rect fill="#F1F1F1" height="35.0938" rx="12.5" ry="12.5" style="stroke:#181818;stroke-width:0.5;" width="153.4004" x="56.0649" y="281.5"/><text fill="#000000" font-family="sans-serif" font-size="12" lengthAdjust="spacing" textLength="133.4004" x="66.0649" y="303.957">For two numbers a and b</text><rect fill="#F1F1F1" height="35.0938" rx="12.5" ry="12.5" style="stroke:#181818;stroke-width:0.5;" width="188.0938" x="38.7183" y="336.5938"/><text fill="#000000" font-family="sans-serif" font-size="12" lengthAdjust="spacing" textLength="168.0938" x="48.7183" y="359.0508">Build ab = String.valueOf(a) + b</text><rect fill="#F1F1F1" height="35.0938" rx="12.5" ry="12.5" style="stroke:#181818;stroke-width:0.5;" width="188.0938" x="38.7183" y="391.6875"/><text fill="#000000" font-family="sans-serif" font-size="12" lengthAdjust="spacing" textLength="168.0938" x="48.7183" y="414.1445">Build ba = String.valueOf(b) + a</text><rect fill="#F1F1F1" height="35.0938" rx="12.5" ry="12.5" style="stroke:#181818;stroke-width:0.5;" width="127.3906" x="69.0698" y="446.7813"/><text fill="#000000" font-family="sans-serif" font-size="12" lengthAdjust="spacing" textLength="107.3906" x="79.0698" y="469.2383">Compare ba with ab</text><polygon fill="#F1F1F1" points="104.3306,513.875,161.1997,513.875,173.1997,525.875,161.1997,537.875,104.3306,537.875,92.3306,525.875,104.3306,513.875" style="stroke:#181818;stroke-width:0.5;"/><text fill="#000000" font-family="sans-serif" font-size="11" lengthAdjust="spacing" textLength="56.8691" x="104.3306" y="530.376">arr[0] == 0?</text><text fill="#000000" font-family="sans-serif" font-size="11" lengthAdjust="spacing" textLength="17.1177" x="75.2129" y="523.458">yes</text><text fill="#000000" font-family="sans-serif" font-size="11" lengthAdjust="spacing" textLength="12.2354" x="173.1997" y="523.458">no</text><rect fill="#F1F1F1" height="35.0938" rx="12.5" ry="12.5" style="stroke:#181818;stroke-width:0.5;" width="74.5449" x="11" y="547.875"/><text fill="#000000" font-family="sans-serif" font-size="12" lengthAdjust="spacing" textLength="54.5449" x="21" y="570.332">Return "0"</text><ellipse cx="48.2725" cy="613.9688" fill="none" rx="11" ry="11" style="stroke:#222222;stroke-width:1;"/><ellipse cx="48.2725" cy="613.9688" fill="#222222" rx="6" ry="6" style="stroke:#222222;stroke-width:1;"/><rect fill="#F1F1F1" height="35.0938" rx="12.5" ry="12.5" style="stroke:#181818;stroke-width:0.5;" width="144.0605" x="145.2275" y="547.875"/><text fill="#000000" font-family="sans-serif" font-size="12" lengthAdjust="spacing" textLength="124.0605" x="155.2275" y="570.332">Create StringBuilder sb</text><rect fill="#F1F1F1" height="35.0938" rx="12.5" ry="12.5" style="stroke:#181818;stroke-width:0.5;" width="175.4258" x="129.5449" y="659.8877"/><text fill="#000000" font-family="sans-serif" font-size="12" lengthAdjust="spacing" textLength="155.4258" x="139.5449" y="682.3447">Append current number to sb</text><polygon fill="#F1F1F1" points="164.6829,602.9688,269.8328,602.9688,281.8328,614.9688,269.8328,626.9688,164.6829,626.9688,152.6829,614.9688,164.6829,602.9688" style="stroke:#181818;stroke-width:0.5;"/><text fill="#000000" font-family="sans-serif" font-size="11" lengthAdjust="spacing" textLength="17.1177" x="221.2578" y="638.3877">yes</text><text fill="#000000" font-family="sans-serif" font-size="11" lengthAdjust="spacing" textLength="105.1499" x="164.6829" y="619.4697">More numbers in arr?</text><text fill="#000000" font-family="sans-serif" font-size="11" lengthAdjust="spacing" textLength="12.2354" x="140.4475" y="612.5518">no</text><rect fill="#F1F1F1" height="35.0938" rx="12.5" ry="12.5" style="stroke:#181818;stroke-width:0.5;" width="124.707" x="154.9043" y="736.9814"/><text fill="#000000" font-family="sans-serif" font-size="12" lengthAdjust="spacing" textLength="104.707" x="164.9043" y="759.4385">Return sb.toString()</text><ellipse cx="217.2578" cy="803.0752" fill="none" rx="11" ry="11" style="stroke:#222222;stroke-width:1;"/><ellipse cx="217.2578" cy="803.0752" fill="#222222" rx="6" ry="6" style="stroke:#222222;stroke-width:1;"/><line style="stroke:#181818;stroke-width:1;" x1="132.7651" x2="132.7651" y1="68.6094" y2="88.6094"/><polygon fill="#181818" points="128.7651,78.6094,132.7651,88.6094,136.7651,78.6094,132.7651,82.6094" style="stroke:#181818;stroke-width:1;"/><line style="stroke:#181818;stroke-width:1;" x1="132.7651" x2="132.7651" y1="123.7031" y2="143.7031"/><polygon fill="#181818" points="128.7651,133.7031,132.7651,143.7031,136.7651,133.7031,132.7651,137.7031" style="stroke:#181818;stroke-width:1;"/><line style="stroke:#181818;stroke-width:1;" x1="132.7651" x2="132.7651" y1="178.7969" y2="198.7969"/><polygon fill="#181818" points="128.7651,188.7969,132.7651,198.7969,136.7651,188.7969,132.7651,192.7969" style="stroke:#181818;stroke-width:1;"/><line style="stroke:#181818;stroke-width:1;" x1="132.7651" x2="132.7651" y1="316.5938" y2="336.5938"/><polygon fill="#181818" points="128.7651,326.5938,132.7651,336.5938,136.7651,326.5938,132.7651,330.5938" style="stroke:#181818;stroke-width:1;"/><line style="stroke:#181818;stroke-width:1;" x1="132.7651" x2="132.7651" y1="371.6875" y2="391.6875"/><polygon fill="#181818" points="128.7651,381.6875,132.7651,391.6875,136.7651,381.6875,132.7651,385.6875" style="stroke:#181818;stroke-width:1;"/><line style="stroke:#181818;stroke-width:1;" x1="132.7651" x2="132.7651" y1="426.7813" y2="446.7813"/><polygon fill="#181818" points="128.7651,436.7813,132.7651,446.7813,136.7651,436.7813,132.7651,440.7813" style="stroke:#181818;stroke-width:1;"/><line style="stroke:#181818;stroke-width:1;" x1="132.7651" x2="132.7651" y1="233.8906" y2="281.5"/><polygon fill="#181818" points="128.7651,271.5,132.7651,281.5,136.7651,271.5,132.7651,275.5" style="stroke:#181818;stroke-width:1;"/><line style="stroke:#181818;stroke-width:1;" x1="48.2725" x2="48.2725" y1="582.9688" y2="602.9688"/><polygon fill="#181818" points="44.2725,592.9688,48.2725,602.9688,52.2725,592.9688,48.2725,596.9688" style="stroke:#181818;stroke-width:1;"/><line style="stroke:#181818;stroke-width:1;" x1="217.2578" x2="217.2578" y1="626.9688" y2="659.8877"/><polygon fill="#181818" points="213.2578,649.8877,217.2578,659.8877,221.2578,649.8877,217.2578,653.8877" style="stroke:#181818;stroke-width:1;"/><line style="stroke:#181818;stroke-width:1;" x1="217.2578" x2="217.2578" y1="694.9814" y2="704.9814"/><line style="stroke:#181818;stroke-width:1;" x1="217.2578" x2="316.9707" y1="704.9814" y2="704.9814"/><polygon fill="#181818" points="312.9707,668.5166,316.9707,658.5166,320.9707,668.5166,316.9707,664.5166" style="stroke:#181818;stroke-width:1;"/><line style="stroke:#181818;stroke-width:1;" x1="316.9707" x2="316.9707" y1="614.9688" y2="704.9814"/><line style="stroke:#181818;stroke-width:1;" x1="316.9707" x2="281.8328" y1="614.9688" y2="614.9688"/><polygon fill="#181818" points="291.8328,610.9688,281.8328,614.9688,291.8328,618.9688,287.8328,614.9688" style="stroke:#181818;stroke-width:1;"/><line style="stroke:#181818;stroke-width:1;" x1="152.6829" x2="117.5449" y1="614.9688" y2="614.9688"/><polygon fill="#181818" points="113.5449,654.5166,117.5449,664.5166,121.5449,654.5166,117.5449,658.5166" style="stroke:#181818;stroke-width:1;"/><line style="stroke:#181818;stroke-width:1;" x1="117.5449" x2="117.5449" y1="614.9688" y2="716.9814"/><line style="stroke:#181818;stroke-width:1;" x1="117.5449" x2="217.2578" y1="716.9814" y2="716.9814"/><line style="stroke:#181818;stroke-width:1;" x1="217.2578" x2="217.2578" y1="716.9814" y2="736.9814"/><polygon fill="#181818" points="213.2578,726.9814,217.2578,736.9814,221.2578,726.9814,217.2578,730.9814" style="stroke:#181818;stroke-width:1;"/><line style="stroke:#181818;stroke-width:1;" x1="217.2578" x2="217.2578" y1="582.9688" y2="602.9688"/><polygon fill="#181818" points="213.2578,592.9688,217.2578,602.9688,221.2578,592.9688,217.2578,596.9688" style="stroke:#181818;stroke-width:1;"/><line style="stroke:#181818;stroke-width:1;" x1="217.2578" x2="217.2578" y1="772.0752" y2="792.0752"/><polygon fill="#181818" points="213.2578,782.0752,217.2578,792.0752,221.2578,782.0752,217.2578,786.0752" style="stroke:#181818;stroke-width:1;"/><line style="stroke:#181818;stroke-width:1;" x1="92.3306" x2="48.2725" y1="525.875" y2="525.875"/><line style="stroke:#181818;stroke-width:1;" x1="48.2725" x2="48.2725" y1="525.875" y2="547.875"/><polygon fill="#181818" points="44.2725,537.875,48.2725,547.875,52.2725,537.875,48.2725,541.875" style="stroke:#181818;stroke-width:1;"/><line style="stroke:#181818;stroke-width:1;" x1="173.1997" x2="217.2578" y1="525.875" y2="525.875"/><line style="stroke:#181818;stroke-width:1;" x1="217.2578" x2="217.2578" y1="525.875" y2="547.875"/><polygon fill="#181818" points="213.2578,537.875,217.2578,547.875,221.2578,537.875,217.2578,541.875" style="stroke:#181818;stroke-width:1;"/><line style="stroke:#181818;stroke-width:1;" x1="132.7651" x2="132.7651" y1="481.875" y2="513.875"/><polygon fill="#181818" points="128.7651,503.875,132.7651,513.875,136.7651,503.875,132.7651,507.875" style="stroke:#181818;stroke-width:1;"/><!--SRC=[PL51QiCm4Bph5KDFDgKXFPKcXD8Q2eMqXUGOSf3jJIAm9IEj4ahftxksbH1QdLQQsPdP5Hjk24iYBbnDk7zun1sMskyfC3vYMv9NAh3sh6OhgiWS2SRoPWiRsp1NiyBP8taUhc27Dykq9oy4xRtWQoUWb3WPFg2AWLsBohMTzfgTC9HKRDWuY-BoZ6y5ERDNAVdaUdL94g2XROroFg8lqJGrT8a5rkoDtK-EkedqkSjqZji_j5B_fvKzJIVQw4uzSSYgfVz7ARD39latqoqM2qoVSl21BB8l2ldOk2AEtk9cUZCgoOYTeYOGCkiIf_2acPB_48WyGafuEXZvXEpTYVjvKcFxhOcR2LTUWzPprv5ieOhUa-NKqU_-h2TeahpufuoXdB0RGsJvTLfRcvtw1G00]--></g></svg>